<?xml version="1.0" encoding="utf-8"?>
<!-- Generator: Adobe Illustrator 13.0.0, SVG Export Plug-In . SVG Version: 6.00 Build 14948)  -->
<!DOCTYPE svg PUBLIC "-//W3C//DTD SVG 1.1//EN" "http://www.w3.org/Graphics/SVG/1.1/DTD/svg11.dtd">
<svg version="1.1" id="Layer_1" xmlns="http://www.w3.org/2000/svg" xmlns:xlink="http://www.w3.org/1999/xlink" x="0px" y="0px"
	 width="631.767px" height="159.851px" viewBox="79.798 225.784 631.767 159.851"
	 enable-background="new 79.798 225.784 631.767 159.851" xml:space="preserve">
<g>
	<g>
		<path d="M281.903,351.653l7.891-18.327c8.527,6.364,19.854,9.673,31.054,9.673c8.272,0,13.49-3.182,13.49-8.018
			c-0.127-13.491-49.508-2.927-49.89-36.781c-0.127-17.182,15.145-30.417,36.78-30.417c12.854,0,25.709,3.182,34.872,10.436
			l-7.381,18.709c-8.4-5.346-18.836-9.164-28.764-9.164c-6.745,0-11.199,3.182-11.199,7.254c0.127,13.235,49.89,5.981,50.398,38.308
			c0,17.564-14.891,29.909-36.271,29.909C307.229,363.235,292.848,359.545,281.903,351.653"/>
		<path d="M584.678,326.709c-3.945,6.872-11.327,11.581-19.854,11.581c-12.6,0-22.781-10.182-22.781-22.781
			s10.182-22.781,22.781-22.781c8.527,0,15.909,4.709,19.854,11.582l21.763-12.09c-8.146-14.509-23.799-24.436-41.617-24.436
			c-26.345,0-47.726,21.381-47.726,47.726s21.381,47.727,47.726,47.727c17.945,0,33.472-9.8,41.617-24.437L584.678,326.709z"/>
		<rect x="370.101" y="228.202" width="27.235" height="133.251"/>
		<polygon points="617.131,228.202 617.131,361.453 644.367,361.453 644.367,321.49 676.693,361.453 711.565,361.453 
			670.457,313.981 708.511,269.692 675.166,269.692 644.367,306.473 644.367,228.202 		"/>
		<path d="M478.28,326.963c-3.945,6.491-12.091,11.327-21.255,11.327c-12.6,0-22.781-10.182-22.781-22.781
			s10.182-22.781,22.781-22.781c9.164,0,17.31,5.091,21.255,11.709V326.963z M478.28,269.692v10.818
			c-4.455-7.509-15.527-12.727-27.108-12.727c-23.927,0-42.763,21.127-42.763,47.599c0,26.472,18.836,47.854,42.763,47.854
			c11.581,0,22.653-5.218,27.108-12.728v10.818h27.235v-91.634H478.28z"/>
	</g>
	<g>
		<g>
			<path fill="#E01E5A" d="M113.524,326.836c0,9.291-7.509,16.8-16.799,16.8s-16.8-7.509-16.8-16.8s7.509-16.8,16.8-16.8h16.799
				V326.836z"/>
			<path fill="#E01E5A" d="M121.924,326.836c0-9.291,7.509-16.8,16.8-16.8s16.8,7.509,16.8,16.8v41.999c0,9.29-7.509,16.8-16.8,16.8
				s-16.8-7.51-16.8-16.8V326.836z"/>
		</g>
		<g>
			<path fill="#36C5F0" d="M138.724,259.383c-9.291,0-16.8-7.509-16.8-16.799c0-9.291,7.509-16.8,16.8-16.8s16.8,7.509,16.8,16.8
				v16.799H138.724z"/>
			<path fill="#36C5F0" d="M138.724,267.91c9.291,0,16.8,7.509,16.8,16.799c0,9.291-7.509,16.8-16.8,16.8H96.598
				c-9.291,0-16.799-7.509-16.799-16.8c0-9.291,7.509-16.799,16.799-16.799H138.724z"/>
		</g>
		<g>
			<path fill="#2EB67D" d="M206.05,284.709c0-9.291,7.509-16.799,16.8-16.799c9.291,0,16.799,7.509,16.799,16.799
				c0,9.291-7.509,16.8-16.799,16.8h-16.8V284.709z"/>
			<path fill="#2EB67D" d="M197.65,284.709c0,9.291-7.509,16.8-16.799,16.8c-9.291,0-16.8-7.509-16.8-16.8v-42.126
				c0-9.291,7.509-16.8,16.8-16.8c9.291,0,16.799,7.509,16.799,16.8V284.709z"/>
		</g>
		<g>
			<path fill="#ECB22E" d="M180.851,352.035c9.291,0,16.799,7.51,16.799,16.8s-7.509,16.8-16.799,16.8c-9.291,0-16.8-7.51-16.8-16.8
				v-16.8H180.851z"/>
			<path fill="#ECB22E" d="M180.851,343.636c-9.291,0-16.8-7.509-16.8-16.8s7.509-16.8,16.8-16.8h42.126
				c9.291,0,16.8,7.509,16.8,16.8s-7.509,16.8-16.8,16.8H180.851z"/>
		</g>
	</g>
</g>
</svg>
